<?xml version="1.0" standalone="no"?><!DOCTYPE svg PUBLIC "-//W3C//DTD SVG 1.1//EN" "http://www.w3.org/Graphics/SVG/1.1/DTD/svg11.dtd"><svg t="1778229702723" class="icon" viewBox="0 0 1024 1024" version="1.1" xmlns="http://www.w3.org/2000/svg" p-id="3194" xmlns:xlink="http://www.w3.org/1999/xlink" width="200" height="200"><path d="M241.96 270.26c11.12 11.12 18 26.48 18 43.45 0 16.97-6.88 32.33-18 43.45l0.03 0.02a21.098 21.098 0 0 0-6.28 15.05c0 11.69 9.48 21.17 21.17 21.17 6.34 0 12.03-2.79 15.92-7.21 18.26-18.71 29.51-44.28 29.51-72.49 0-28.6-11.57-54.5-30.28-73.27h0.01c-11.12-11.12-18-26.49-18-43.46 0-16.97 6.88-32.33 18-43.45l-0.03-0.03a21.11 21.11 0 0 0 5.49-14.23c0-11.7-9.48-21.18-21.18-21.18a21.11 21.11 0 0 0-14.23 5.49l-0.11 0.11c-0.54 0.5-1.06 1.03-1.55 1.59-17.81 18.64-28.75 43.9-28.75 71.71 0.01 28.61 11.57 54.5 30.28 73.28zM392.27 270.26c11.12 11.12 18 26.48 18 43.45 0 16.97-6.88 32.33-18 43.45l0.03 0.02c-3.87 3.84-6.28 9.16-6.28 15.05 0 11.69 9.48 21.17 21.18 21.17 6.34 0 12.03-2.79 15.91-7.21 18.26-18.71 29.51-44.28 29.51-72.49 0-28.6-11.57-54.5-30.27-73.27-11.12-11.12-18-26.49-18-43.46 0-16.97 6.88-32.33 18-43.45l-0.03-0.03c3.41-3.76 5.5-8.75 5.5-14.23 0-11.7-9.48-21.18-21.18-21.18a21.11 21.11 0 0 0-14.23 5.49c-0.04 0.04-0.07 0.07-0.1 0.11-0.54 0.5-1.06 1.03-1.55 1.59-17.81 18.64-28.75 43.9-28.75 71.71-0.02 28.61 11.55 54.5 30.26 73.28zM543.45 270.26c11.12 11.12 18 26.48 18 43.45 0 16.97-6.88 32.33-18 43.45l0.03 0.02a21.098 21.098 0 0 0-6.28 15.05c0 11.69 9.48 21.17 21.17 21.17 6.34 0 12.03-2.79 15.91-7.21 18.25-18.71 29.51-44.28 29.51-72.49 0-28.6-11.57-54.5-30.28-73.27-11.12-11.12-18-26.49-18-43.46 0-16.97 6.88-32.33 18-43.45l-0.03-0.03a21.11 21.11 0 0 0 5.49-14.23c0-11.7-9.48-21.18-21.18-21.18a21.11 21.11 0 0 0-14.23 5.49l-0.11 0.11c-0.54 0.5-1.06 1.03-1.55 1.59-17.81 18.64-28.75 43.9-28.75 71.71 0.02 28.61 11.59 54.5 30.3 73.28zM828.72 465.7c-25.07 0-48.41 7.33-68.2 19.81l0.01-15.79c0.02-30.99-25.18-56.31-56.16-56.45l-580.64-2.47h-0.24c-15.07 0-29.23 5.86-39.89 16.52-10.72 10.72-16.58 24.96-16.52 40.1l0.8 198.19c0 132.65 107.92 240.56 240.56 240.56H519.8c120.66 0 220.56-89.38 237.68-205.35 20.4 13.66 44.89 21.65 71.22 21.65 70.79 0 128.38-57.6 128.38-128.38S899.51 465.7 828.72 465.7z m-130 199.9c0 98.66-80.25 178.91-178.9 178.91H308.46c-98.65 0-178.91-80.25-178.91-179.03l-0.78-193.02 570.12 2.43-0.17 190.71z m130-4.8c-36.8 0-66.73-29.94-66.73-66.73s29.93-66.73 66.73-66.73c36.8 0 66.73 29.94 66.73 66.73s-29.93 66.73-66.73 66.73z" fill="#ffffff" p-id="3195"></path></svg>