<?xml version="1.0" standalone="no"?><!DOCTYPE svg PUBLIC "-//W3C//DTD SVG 1.1//EN" "http://www.w3.org/Graphics/SVG/1.1/DTD/svg11.dtd"><svg t="1783595150762" class="icon" viewBox="0 0 1024 1024" version="1.1" xmlns="http://www.w3.org/2000/svg" p-id="16632" xmlns:xlink="http://www.w3.org/1999/xlink" width="200" height="200"><path d="M773.12 302.08c5.12 0 10.24 0 15.36 5.12l225.28 184.32c5.12 0 10.24 5.12 10.24 15.36s-5.12 15.36-10.24 20.48l-225.28 179.2c-10.24 10.24-25.6 5.12-30.72-5.12-10.24-10.24-5.12-25.6 5.12-30.72l204.8-163.84-204.8-163.84c-10.24-10.24-10.24-20.48-5.12-30.72 0-10.24 10.24-10.24 15.36-10.24z m-455.68 399.36c-10.24-10.24-10.24-30.72 0-40.96L665.6 307.2c10.24-10.24 30.72-10.24 40.96 0 10.24 10.24 10.24 30.72 0 40.96L358.4 701.44c-10.24 10.24-30.72 10.24-40.96 0z m-66.56 10.24c-5.12 0-10.24 0-15.36-5.12L10.24 522.24c-5.12-5.12-10.24-10.24-10.24-15.36s5.12-15.36 10.24-20.48L235.52 307.2c10.24-10.24 25.6-10.24 30.72 0s5.12 25.6-5.12 30.72l-204.8 163.84 204.8 163.84c10.24 10.24 10.24 20.48 5.12 30.72 0 10.24-10.24 15.36-15.36 15.36z" fill="#ffffff" p-id="16633"></path></svg>