<?xml version="1.0" standalone="no"?><!DOCTYPE svg PUBLIC "-//W3C//DTD SVG 1.1//EN" "http://www.w3.org/Graphics/SVG/1.1/DTD/svg11.dtd"><svg t="1783595127727" class="icon" viewBox="0 0 1024 1024" version="1.1" xmlns="http://www.w3.org/2000/svg" p-id="15521" xmlns:xlink="http://www.w3.org/1999/xlink" width="200" height="200"><path d="M537.152 414.72h-288.64a29.44 29.44 0 0 1-26.24-30.72 29.44 29.44 0 0 1 26.24-32h288.64a29.44 29.44 0 0 1 26.24 32 29.44 29.44 0 0 1-26.24 30.72z m209.92 165.76h-498.56a32.64 32.64 0 0 1 0-64h498.56a32.64 32.64 0 0 1 0 64z m0 165.76h-498.56a32.64 32.64 0 0 1 0-64h498.56a32.64 32.64 0 0 1 0 64z" fill="#ffffff" p-id="15522"></path><path d="M192.832 0a128 128 0 0 0-128 128v768a128 128 0 0 0 128 128h640a128 128 0 0 0 128-128l7.04-670.72L748.992 0h-556.16z m512 64l192 192h-160.64a31.36 31.36 0 0 1-31.36-31.36V64z m128 896h-640a64 64 0 0 1-64-64V128a64 64 0 0 1 64-64h448v192a64 64 0 0 0 64 64h192v576a64 64 0 0 1-64 64z" fill="#ffffff" p-id="15523"></path></svg>