<?xml version="1.0" standalone="no"?><!DOCTYPE svg PUBLIC "-//W3C//DTD SVG 1.1//EN" "http://www.w3.org/Graphics/SVG/1.1/DTD/svg11.dtd"><svg t="1778229985155" class="icon" viewBox="0 0 1024 1024" version="1.1" xmlns="http://www.w3.org/2000/svg" p-id="4286" xmlns:xlink="http://www.w3.org/1999/xlink" width="200" height="200"><path d="M191.584 11.488a55.2 55.2 0 0 0-54.912 60.896l89.376 862.208 11.872 10.272c11.2 9.952 76.544 59.392 272.928 59.392 196.48 0 261.856-49.312 272.96-59.264l11.904-10.432 89.344-862.208A55.168 55.168 0 0 0 830.112 11.456H191.584z m526.208 878.144c-23.808 11.328-84.544 32.48-206.912 32.48-123.104 0-183.776-21.408-206.816-32.32L227.808 153.76a55.168 55.168 0 0 1 54.944-60.896h456.32a55.136 55.136 0 0 1 54.912 60.896l-76.192 735.872z" fill="#ffffff" p-id="4287"></path><path d="M331.84 349.92l44.896 477.056s47.328 25.664 126.08 25.664c78.912 0 150.24-25.664 150.24-25.664l42.72-454.464c-14.976 0.736-30.048 1.792-44.8 1.504-96.16-1.984-214.24-28.928-319.136-24.096z" fill="#ffffff" p-id="4288"></path></svg>