<?xml version="1.0" standalone="no"?><!DOCTYPE svg PUBLIC "-//W3C//DTD SVG 1.1//EN" "http://www.w3.org/Graphics/SVG/1.1/DTD/svg11.dtd"><svg t="1778685158573" class="icon" viewBox="0 0 1024 1024" version="1.1" xmlns="http://www.w3.org/2000/svg" p-id="3310" xmlns:xlink="http://www.w3.org/1999/xlink" width="200" height="200"><path d="M216.176 966.864a30.304 30.304 0 0 1-24.624-47.952c7.472-10.56 68.848-103.936-35.72-182.568C58 663.768 0 555.864 0 447.16 0 239.392 239.24 57.136 511.976 57.136c270.648 0 509.904 182.112 512 389.712 2.072 207.776-157.864 351.704-427.808 385.048l-137.112 4.848c-36.32 27.696-168.696 125.032-240.784 130.064a46.128 46.128 0 0 1-2.096 0.056zM511.976 117.728c-258.336 0-451.384 173.928-451.384 329.432 0 89.6 48.84 179.336 130.648 240.016 84.584 63.576 94.32 140.2 80.192 198.992 51.76-25.976 117.376-71.36 158.208-103.224a30.264 30.264 0 0 1 17.592-6.392l144.184-4.968c237.176-29.44 373.752-147.632 371.976-324.128-1.568-155.96-187.336-329.728-451.416-329.728z" fill="#ffffff" p-id="3311"></path><path d="M309.08 488.536h-12.632a45.44 45.44 0 0 1-45.448-45.448 45.432 45.432 0 0 1 45.448-45.44h12.632a45.44 45.44 0 1 1 0 90.888zM533.128 488.536h-12.624a45.44 45.44 0 0 1-45.448-45.448 45.432 45.432 0 0 1 45.448-45.44h12.624a45.448 45.448 0 0 1 0 90.888zM757.176 488.536h-12.632a45.44 45.44 0 1 1 0-90.888h12.632a45.44 45.44 0 1 1 0 90.888z" fill="#ffffff" p-id="3312"></path></svg>