<?xml version="1.0" standalone="no"?><!DOCTYPE svg PUBLIC "-//W3C//DTD SVG 1.1//EN" "http://www.w3.org/Graphics/SVG/1.1/DTD/svg11.dtd"><svg t="1778229994543" class="icon" viewBox="0 0 1024 1024" version="1.1" xmlns="http://www.w3.org/2000/svg" p-id="5118" xmlns:xlink="http://www.w3.org/1999/xlink" width="200" height="200"><path d="M366.368 295.072c-63.04 0-114.24-51.2-114.24-114.24 0-63.04 51.2-114.24 114.24-114.24 63.04 0 114.24 51.2 114.24 114.24 0 63.04-51.2 114.24-114.24 114.24z m410.88 254.08c54.72 0 83.2 43.52 83.2 83.2v264.64c0 81.28-121.92 80.96-121.92-1.6v-216.32h-283.2c-56 0-88.96-36.16-97.6-79.36l-58.24-167.04c-20.16-125.76 164.48-163.84 194.24-35.2l50.24 151.68z m-121.92 159.36c60.48 0 60.16 88.96 0.64 89.28h-227.52c-117.44 0-117.12-18.24-168.96-154.88l-94.08-248.96c-13.76-42.56 54.72-74.24 77.12-25.28 0 0 72.32 179.52 98.56 245.76 32 80 32 94.08 114.88 94.08z" p-id="5119" fill="#ffffff"></path></svg>