<?xml version="1.0" standalone="no"?><!DOCTYPE svg PUBLIC "-//W3C//DTD SVG 1.1//EN" "http://www.w3.org/Graphics/SVG/1.1/DTD/svg11.dtd"><svg t="1781856238392" class="icon" viewBox="0 0 1024 1024" version="1.1" xmlns="http://www.w3.org/2000/svg" p-id="2780" xmlns:xlink="http://www.w3.org/1999/xlink" width="200" height="200"><path d="M0 0h1024v1024H0z" fill="#ffffff" fill-opacity="0" p-id="2781"></path><path d="M790.588235 184.470588H263.529412A79.058824 79.058824 0 0 0 184.470588 263.529412v527.058823a79.058824 79.058824 0 0 0 79.058824 79.058824h527.058823a79.058824 79.058824 0 0 0 79.058824-79.058824V263.529412a79.058824 79.058824 0 0 0-79.058824-79.058824z m-527.058823 52.705883h527.058823c14.546824 0 26.352941 11.806118 26.352941 26.352941v527.058823a26.352941 26.352941 0 0 1-26.352941 26.352941H263.529412a26.352941 26.352941 0 0 1-26.352941-26.352941V263.529412c0-14.546824 11.806118-26.352941 26.352941-26.352941z" fill="#ffffff" p-id="2782"></path><path d="M684.122353 420.592941a26.352941 26.352941 0 0 1 39.604706 34.544941l-2.349177 2.710589-140.559058 140.559058a26.352941 26.352941 0 0 1-39.634824-2.710588l-1.867294-2.861176-53.157647-93.033412-116.163765 116.163765a26.352941 26.352941 0 0 1-34.544941 2.349176l-2.710588-2.349176a26.352941 26.352941 0 0 1-2.349177-34.575059l2.349177-2.710588 140.559059-140.528942a26.352941 26.352941 0 0 1 39.634823 2.710589l1.867294 2.861176 53.157647 92.973177 116.163765-116.10353z" fill="#ffffff" p-id="2783"></path></svg>