<?xml version="1.0" standalone="no"?><!DOCTYPE svg PUBLIC "-//W3C//DTD SVG 1.1//EN" "http://www.w3.org/Graphics/SVG/1.1/DTD/svg11.dtd"><svg t="1783590608305" class="icon" viewBox="0 0 1024 1024" version="1.1" xmlns="http://www.w3.org/2000/svg" p-id="7138" xmlns:xlink="http://www.w3.org/1999/xlink" width="200" height="200"><path d="M512 204.8a307.2 307.2 0 1 1-0.1024 614.4 307.2 307.2 0 0 1 0-614.4z m76.1856 100.9664c-25.6-9.6256-38.5024-14.5408-55.0912-5.2224a50.5856 50.5856 0 0 0-6.5536 4.5056C512 317.3376 512 334.7456 512 369.664v274.432c0 34.9184 0 52.4288 14.5408 64.7168a50.4832 50.4832 0 0 0 6.5536 4.5056c16.5888 9.216 29.3888 4.4032 55.0912-5.3248a215.04 215.04 0 0 0 0-402.2272z" p-id="7139" fill="#ffffff"></path></svg>