<?xml version="1.0" standalone="no"?><!DOCTYPE svg PUBLIC "-//W3C//DTD SVG 1.1//EN" "http://www.w3.org/Graphics/SVG/1.1/DTD/svg11.dtd"><svg t="1783590583189" class="icon" viewBox="0 0 1024 1024" version="1.1" xmlns="http://www.w3.org/2000/svg" p-id="8250" xmlns:xlink="http://www.w3.org/1999/xlink" width="200" height="200"><path d="M0 0h1024v1024H0z" fill="#ffffff" opacity=".01" p-id="8251"></path><path d="M950.933333 602.218667A448.149333 448.149333 0 0 0 736 124.032a448.149333 448.149333 0 0 0-521.6 52.949333 42.666667 42.666667 0 1 0 56.661333 63.786667 362.816 362.816 0 0 1 596.288 344.256 42.666667 42.666667 0 1 0 83.584 17.194667zM330.666667 826.069333a362.816 362.816 0 0 1-174.08-386.88 42.666667 42.666667 0 1 0-83.584-17.152A448.149333 448.149333 0 0 0 288 899.989333a448.149333 448.149333 0 0 0 521.216-52.629333 42.666667 42.666667 0 0 0-56.597333-63.850667 362.816 362.816 0 0 1-421.973334 42.56z m141.653333-544.682666c14.464-32.661333 59.733333-33.834667 76.373333-3.370667l1.6 3.264 171.328 384a42.666667 42.666667 0 0 1-76.437333 37.76l-1.493333-2.986667-36.778667-82.453333a42.88 42.88 0 0 1-9.6 1.066667h-170.666667c-3.370667 0-6.656-0.384-9.813333-1.130667l-36.48 82.410667a42.666667 42.666667 0 0 1-53.184 22.976l-3.114667-1.237334a42.666667 42.666667 0 0 1-22.976-53.184l1.237334-3.114666 170.005333-384zM454.08 533.333333h115.221333l-57.834666-129.621333L454.08 533.333333z" fill="#ffffff" fill-opacity=".85" p-id="8252"></path></svg>