<?xml version="1.0" standalone="no"?><!DOCTYPE svg PUBLIC "-//W3C//DTD SVG 1.1//EN" "http://www.w3.org/Graphics/SVG/1.1/DTD/svg11.dtd"><svg t="1778141292202" class="icon" viewBox="0 0 1024 1024" version="1.1" xmlns="http://www.w3.org/2000/svg" p-id="3086" xmlns:xlink="http://www.w3.org/1999/xlink" width="200" height="200"><path d="M512 938.666667C277.333333 938.666667 85.333333 746.666667 85.333333 512c0-25.6 17.066667-42.666667 42.666667-42.666667s42.666667 17.066667 42.666667 42.666667c0 187.733333 153.6 341.333333 341.333333 341.333333s341.333333-153.6 341.333333-341.333333-153.6-341.333333-341.333333-341.333333C396.8 170.666667 290.133333 226.133333 230.4 324.266667 213.333333 341.333333 187.733333 345.6 170.666667 332.8 149.333333 320 145.066667 294.4 157.866667 273.066667 234.666667 157.866667 371.2 85.333333 512 85.333333c234.666667 0 426.666667 192 426.666667 426.666667S746.666667 938.666667 512 938.666667zM512 554.666667c-25.6 0-42.666667-17.066667-42.666667-42.666667L469.333333 298.666667c0-25.6 17.066667-42.666667 42.666667-42.666667s42.666667 17.066667 42.666667 42.666667l0 213.333333C554.666667 537.6 537.6 554.666667 512 554.666667zM640 682.666667c-12.8 0-21.333333-4.266667-29.866667-12.8l-128-128c-17.066667-17.066667-17.066667-42.666667 0-59.733333s42.666667-17.066667 59.733333 0l128 128c17.066667 17.066667 17.066667 42.666667 0 59.733333C661.333333 678.4 652.8 682.666667 640 682.666667zM341.333333 341.333333 170.666667 341.333333C145.066667 341.333333 128 324.266667 128 298.666667L128 128c0-25.6 17.066667-42.666667 42.666667-42.666667s42.666667 17.066667 42.666667 42.666667l0 128 128 0c25.6 0 42.666667 17.066667 42.666667 42.666667S366.933333 341.333333 341.333333 341.333333z" fill="#ffffff" p-id="3087"></path></svg>