<?xml version="1.0" standalone="no"?><!DOCTYPE svg PUBLIC "-//W3C//DTD SVG 1.1//EN" "http://www.w3.org/Graphics/SVG/1.1/DTD/svg11.dtd"><svg t="1778423144124" class="icon" viewBox="0 0 1761 1024" version="1.1" xmlns="http://www.w3.org/2000/svg" p-id="5216" xmlns:xlink="http://www.w3.org/1999/xlink" width="343.9453125" height="200"><path d="M0 0h1700.838v1024H0z" fill="#DE2910" p-id="5217"></path><path d="M168.867 411.794l33.087-102.177-86.748-63.432 107.32-0.171 33.431-102.006 33.43 102.006 107.32 0.343-86.747 63.26 32.916 102.177-86.919-62.917z m299.33 55.203l36.345 14.573 25.202-29.83L527 490.655l36.173 14.744-37.888 9.429-2.743 38.916L501.8 520.83l-37.887 9.258 25.03-30.002z m196.126-196.296l-38.402-6.686-18.344 34.287-5.658-38.573-38.402-6.858 35.145-17.144-5.315-38.745 27.088 28.116 35.144-17.144-18.172 34.631z m-81.605 174.867l12-37.202-31.544-22.973h39.088l12.172-37.202 12.172 37.202h38.917l-31.545 22.973 12 37.202-31.544-22.802zM470.083 106.292l35.488 16.458 26.744-28.63-4.628 38.745 35.316 16.63-38.402 7.542-4.8 38.745-19.03-34.116-38.402 7.372 26.573-28.63z" fill="#FFDE00" p-id="5218"></path></svg>