<?xml version="1.0" standalone="no"?><!DOCTYPE svg PUBLIC "-//W3C//DTD SVG 1.1//EN" "http://www.w3.org/Graphics/SVG/1.1/DTD/svg11.dtd"><svg t="1778423215752" class="icon" viewBox="0 0 1024 1024" version="1.1" xmlns="http://www.w3.org/2000/svg" p-id="8626" xmlns:xlink="http://www.w3.org/1999/xlink" width="200" height="200"><path d="M0 159.744h1024v704H0z" fill="#FFFFFF" p-id="8627"></path><path d="M0 159.744h1024v46.592H0v-46.592z m0 94.208h1024v46.592H0v-46.592z m0 93.696h1024V394.24H0v-46.592z m0 93.696h1024v46.592H0v-46.592z m0 94.208h1024v46.592H0v-46.592z m0 93.696h1024v46.592H0v-46.592z m0 94.208h1024v46.592H0v-46.592z m0 93.696h1024v46.592H0v-46.592z m0 0" fill="#D02F44" p-id="8628"></path><path d="M0 159.744h448v328.192H0z" fill="#46467F" p-id="8629"></path><path d="M64.512 225.792l-15.872 12.288 5.632-19.968-15.872-12.8h19.968l6.656-19.968 6.656 19.968h19.968l-15.872 12.8 5.632 19.968-16.896-12.288z m104.96 0L153.6 238.08l5.632-19.968-15.872-12.8h19.968l6.656-19.968 6.656 19.968h19.968l-15.872 12.8 5.632 19.968-16.896-12.288z m105.472 0l-15.872 12.288 5.632-19.968-15.872-12.8h19.968l6.656-19.968 6.656 19.968H302.08l-15.872 12.8 5.632 19.968-16.896-12.288z m104.96 2.048l-15.872 12.288 5.632-20.48-15.872-12.8 19.968-0.512 6.656-20.48 6.656 20.48 19.968 0.512-15.872 12.8 5.632 20.48-16.896-12.288zM105.472 281.088l-15.872 12.288 5.632-19.968-15.872-12.8h19.968l6.656-19.968 6.144 19.968h19.968l-15.872 12.8 5.632 19.968-16.384-12.288z m118.272 0l-15.872 12.288 5.632-19.968-15.872-12.8h19.968l6.656-19.968 6.656 19.968H250.88l-15.872 12.8 5.632 19.968-16.896-12.288z m117.76 0l-15.872 12.288 5.632-19.968-15.872-12.8h19.968l6.656-19.968 6.656 19.968H368.64l-15.872 12.8 5.632 19.968-16.896-12.288zM64.512 336.384l-15.872 12.288 5.632-19.968-15.872-12.8h19.968l6.656-19.968 6.656 19.968h19.968l-15.872 12.8 5.632 19.968-16.896-12.288z m104.96 0L153.6 348.16l5.632-19.968-15.872-12.8h19.968l6.656-19.968 6.656 19.968h19.968l-15.872 12.8 5.632 19.968-16.896-11.776z m105.472 0l-15.872 12.288 5.632-19.968-15.872-12.8h19.968l6.656-19.968 6.656 19.968H302.08l-15.872 12.8 5.632 19.968-16.896-12.288z m104.96 1.536l-15.872 12.288 5.632-20.48-15.872-12.8 19.968-0.512 6.656-20.48 6.656 20.48 19.968 0.512-15.872 12.8 5.632 20.48-16.896-12.288zM64.512 446.464l-15.872 12.288 5.632-19.968-15.872-12.8h19.968l6.656-19.968 6.656 19.968h19.968l-15.872 12.8 5.632 19.968-16.896-12.288z m104.96 0L153.6 458.752l5.632-19.968-15.872-12.8h19.968l6.656-19.968 6.656 19.968h19.968l-15.872 12.8 5.632 19.968-16.896-12.288z m105.472 0l-15.872 12.288 5.632-19.968-15.872-12.8h19.968l6.656-19.968 6.656 19.968H302.08l-15.872 12.8 5.632 19.968-16.896-12.288z m104.96 2.048L364.032 460.8l5.632-20.48-15.872-12.8 19.968-0.512 6.656-20.48 6.656 20.48 19.968 0.512-16.384 12.8 5.632 20.48-16.384-12.288zM105.472 391.68l-15.872 12.288 5.632-19.968-15.872-12.8h19.968l6.656-19.968 6.144 19.968h19.968L115.712 384l5.632 19.968-15.872-12.288z m118.272 0l-15.872 12.288 5.632-19.968-15.872-12.8h19.968l6.656-19.968 6.656 19.968H250.88L234.496 384l5.632 19.968-16.384-12.288z m117.76 0l-15.872 12.288 5.632-19.968-15.872-12.8h19.968l6.656-19.968 6.656 19.968H368.64L352.256 384l5.632 19.968-16.384-12.288z m0 0" fill="#FFFFFF" p-id="8630"></path></svg>