<?xml version="1.0" standalone="no"?><!DOCTYPE svg PUBLIC "-//W3C//DTD SVG 1.1//EN" "http://www.w3.org/Graphics/SVG/1.1/DTD/svg11.dtd"><svg t="1783268451061" class="icon" viewBox="0 0 1024 1024" version="1.1" xmlns="http://www.w3.org/2000/svg" p-id="894" xmlns:xlink="http://www.w3.org/1999/xlink" width="200" height="200"><path d="M213.98497 0h605.028848l0.062061 6.081939C615.39297 5.957818 411.710061 6.950788 208.027152 5.585455l5.957818-5.585455zM0 214.04703l5.275152-5.957818c1.799758 206.661818 1.05503 413.385697 0.372363 620.047515l-5.647515-5.647515V214.04703z" opacity=".25" p-id="895"></path><path d="M5.275152 208.089212C14.211879 103.641212 103.39297 13.963636 208.027152 5.585455c203.682909 1.365333 407.365818 0.372364 611.048727 0.496484 98.614303 3.909818 184.568242 82.664727 204.924121 177.989819v662.931394c-17.190788 86.264242-87.629576 156.516848-172.652606 176.996848H183.947636c-92.966788-19.42497-168.804848-100.910545-178.300121-195.863273 0.682667-206.661818 1.427394-413.385697-0.372363-620.047515m403.766303-35.80897c3.04097 10.612364 4.158061 21.783273 8.25406 32.085334l4.778667 2.420363-2.482424 2.730667c5.15103 31.464727 16.135758 61.688242 22.714181 92.904727l0.99297 0.372364c4.964848 23.645091 11.729455 46.793697 17.687273 70.190545l0.496485 0.186182c4.716606 20.914424 10.426182 41.580606 15.639272 62.370909-3.909818 0.744727-11.791515 2.172121-15.701333 2.916849-32.333576-0.682667-64.54303 12.598303-93.277091 27.430788-25.693091 15.080727-48.593455 34.753939-66.963394 58.274909-17.37697 23.458909-31.030303 49.710545-39.470545 77.824 43.318303 1.303273 87.07103-2.978909 130.141091 2.978909-18.742303 3.227152-37.422545 6.826667-55.544243 12.846545l-0.372363-0.186181c-21.659152 5.461333-43.256242 11.170909-64.853334 16.756363-44.00097 11.667394-88.126061 22.652121-132.12703 34.319515 37.422545 7.19903 76.582788 1.365333 114.750061 2.916849 0.744727 9.495273 1.551515 18.990545 2.482424 28.485818 11.419152 71.493818 58.026667 136.657455 123.562666 168.122182 61.812364 31.77503 137.836606 31.464727 200.393697 1.799757 21.100606-10.426182 40.835879-23.458909 57.840485-39.842909l0.620606 0.558546c10.984727-11.605333 21.410909-23.831273 30.533819-36.988121l0.310303 0.186181c9.371152-14.211879 17.563152-29.168485 23.831272-44.993939l0.682667 0.682667c4.778667-14.894545 8.874667-29.975273 12.288-45.242182-25.382788 0.124121-50.703515-0.310303-76.024242 0.372363-14.025697-0.372364-27.989333-0.186182-42.015031-0.248242 11.046788-4.096 22.341818-7.261091 33.76097-9.991758 37.91903-9.805576 75.838061-19.549091 113.69503-29.602909 36.553697-10.302061 74.100364-17.252848 109.847273-30.037333-45.738667-0.930909-91.539394 0-137.340121-0.310303-5.709576-28.796121-13.467152-57.095758-20.976485-85.457455-6.330182-24.948364-13.032727-49.772606-19.176727-74.78303l-0.868849-0.372364c-5.275152-23.458909-11.605333-46.669576-17.625212-69.942303l-0.682667-0.186181c-4.468364-19.673212-9.557333-39.222303-14.956606-58.647273 55.544242 1.427394 111.150545 0.372364 166.694788 0.930909-2.606545-9.991758-5.213091-19.983515-7.695515-29.975273l-0.620606-0.186182c-7.261091-30.72-15.701333-61.129697-23.272727-91.787636l-0.744728 0.186182c-3.909818-17.501091-8.254061-34.878061-13.094787-52.068849-33.574788 0-67.087515-0.310303-100.662303 0.186182-45.366303-0.496485-90.732606-0.434424-136.09891 0.062061-36.429576-0.744727-72.921212-0.186182-109.350787-0.248243z" p-id="896"></path><path d="M409.041455 172.280242c36.429576 0.062061 72.921212-0.496485 109.350787 0.248243 9.557333 8.936727 19.921455 17.066667 31.899152 22.528 33.388606 16.011636 66.342788 32.892121 99.607273 49.21406 46.731636 25.258667 92.408242 53.185939 142.36703 71.68l0.620606 0.186182c2.482424 9.991758 5.08897 19.983515 7.695515 29.975273-55.544242-0.558545-111.150545 0.496485-166.694788-0.930909 15.887515-3.04097 32.085333-4.654545 48.221091-5.895758-55.171879-37.546667-119.156364-59.578182-176.003879-94.394181-27.244606-14.087758-53.620364-31.77503-84.03006-38.105213l-4.778667-2.420363c-4.096-10.302061-5.213091-21.47297-8.25406-32.085334z" fill="#BDFD45" p-id="897"></path><path d="M518.392242 172.528485c45.366303-0.496485 90.732606-0.558545 136.09891-0.062061 32.147394 22.031515 68.142545 37.794909 103.392969 54.178909 2.606545-0.558545 7.757576-1.737697 10.364121-2.296242l0.744728-0.186182c7.571394 30.657939 16.011636 61.067636 23.272727 91.787636-49.958788-18.494061-95.635394-46.421333-142.36703-71.68-33.264485-16.321939-66.218667-33.202424-99.607273-49.21406-11.977697-5.461333-22.341818-13.591273-31.899152-22.528z" fill="#DEFC46" p-id="898"></path><path d="M654.491152 172.466424c33.574788-0.496485 67.087515-0.186182 100.662303-0.186182 4.840727 17.190788 9.18497 34.567758 13.094787 52.068849-2.606545 0.558545-7.757576 1.737697-10.364121 2.296242-35.250424-16.384-71.245576-32.147394-103.392969-54.178909z" fill="#FCFC47" p-id="899"></path><path d="M422.074182 206.785939c30.409697 6.330182 56.785455 24.017455 84.03006 38.105213 56.847515 34.816 120.832 56.847515 176.003879 94.394181-16.135758 1.241212-32.333576 2.854788-48.221091 5.895758 5.399273 19.42497 10.488242 38.974061 14.956606 58.647273-31.71297-7.323152-57.468121-27.927273-86.016-42.263273-39.96703-19.300848-78.941091-40.711758-119.528727-58.771394l-0.99297-0.372364c-6.578424-31.216485-17.563152-61.44-22.714181-92.904727l2.482424-2.730667z" fill="#98FD44" p-id="900"></path><path d="M443.298909 302.793697c40.587636 18.059636 79.561697 39.470545 119.528727 58.771394 28.547879 14.336 54.30303 34.940121 86.016 42.263273l0.682667 0.186181c6.019879 23.272727 12.350061 46.483394 17.625212 69.942303-71.866182-26.624-133.616485-74.534788-205.668848-100.786424l-0.496485-0.186182c-5.957818-23.396848-12.722424-46.545455-17.687273-70.190545z" fill="#77FD43" p-id="901"></path><path d="M461.482667 373.170424c72.052364 26.251636 133.802667 74.162424 205.668848 100.786424l0.868849 0.372364c6.144 25.010424 12.846545 49.834667 19.176727 74.78303-24.017455 3.10303-43.442424-14.211879-63.550061-24.389818-52.441212-31.77503-111.088485-52.19297-162.226424-86.264242 3.909818-0.744727 11.791515-2.172121 15.701333-2.916849-5.213091-20.790303-10.922667-41.456485-15.639272-62.370909z" fill="#5EFD43" p-id="902"></path><path d="M368.143515 465.88897c28.734061-14.832485 60.943515-28.113455 93.277091-27.430788 51.137939 34.071273 109.785212 54.489212 162.226424 86.264242 20.107636 10.177939 39.532606 27.492848 63.550061 24.389818 7.509333 28.361697 15.266909 56.661333 20.976485 85.457455 45.800727 0.310303 91.601455-0.620606 137.340121 0.310303-35.746909 12.784485-73.293576 19.735273-109.847273 30.037333-41.332364-25.63103-86.884848-43.380364-128.775757-68.018424-54.116848-31.961212-112.950303-54.861576-166.756849-87.443394-23.707152-15.080727-52.937697-21.783273-71.990303-43.566545z" fill="#41FE42" p-id="903"></path><path d="M301.180121 524.163879c18.369939-23.52097 41.270303-43.194182 66.963394-58.274909 19.052606 21.783273 48.283152 28.485818 71.990303 43.566545 53.806545 32.581818 112.64 55.482182 166.756849 87.443394 41.890909 24.638061 87.443394 42.387394 128.775757 68.018424-37.85697 10.053818-75.776 19.797333-113.69503 29.602909-61.998545-39.656727-130.885818-66.59103-194.373818-103.641212-41.270303-23.893333-86.202182-40.96-126.417455-66.715151z" fill="#2AFE41" p-id="904"></path><path d="M261.709576 601.987879c8.440242-28.113455 22.093576-54.365091 39.470545-77.824 40.215273 25.755152 85.147152 42.821818 126.417455 66.715151 63.488 37.050182 132.375273 63.984485 194.373818 103.641212-11.419152 2.730667-22.714182 5.895758-33.76097 9.991758 14.025697 0.062061 27.989333-0.124121 42.015031 0.248242 18.866424 17.997576 47.041939 22.838303 63.053575 44.187152-6.268121 15.825455-14.460121 30.782061-23.831272 44.993939l-0.310303-0.186181c-43.256242-22.465939-87.381333-43.256242-129.272243-68.266667-68.825212-34.009212-137.526303-68.390788-203.558788-107.675152 18.121697-6.019879 36.801939-9.619394 55.544243-12.846545-43.070061-5.957818-86.822788-1.675636-130.141091-2.978909z" fill="#26FE68" p-id="905"></path><path d="M271.080727 634.383515c21.597091-5.585455 43.194182-11.29503 64.853334-16.756363l0.372363 0.186181c66.032485 39.284364 134.733576 73.665939 203.558788 107.675152 41.890909 25.010424 86.016 45.800727 129.272243 68.266667-9.122909 13.156848-19.549091 25.382788-30.533819 36.988121l-0.620606-0.558546c-21.100606-19.238788-48.407273-28.796121-73.293575-41.766788-62.246788-30.037333-121.700848-65.349818-184.009697-95.200969-37.794909-17.252848-72.610909-40.029091-109.599031-58.833455z" fill="#25FE89" p-id="906"></path><path d="M138.953697 668.70303c44.00097-11.667394 88.126061-22.652121 132.12703-34.319515 36.988121 18.804364 71.804121 41.580606 109.599031 58.833455 62.308848 29.851152 121.762909 65.163636 184.009697 95.200969 24.886303 12.970667 52.19297 22.528 73.293575 41.766788-17.004606 16.384-36.739879 29.416727-57.840485 39.842909-56.164848-39.222303-120.645818-63.984485-180.596363-96.566303-46.545455-26.748121-94.518303-51.137939-143.36-73.355636-0.930909-9.495273-1.737697-18.990545-2.482424-28.485818-38.167273-1.551515-77.327515 4.282182-114.750061-2.916849z" fill="#25FEA6" p-id="907"></path><path d="M256.186182 700.105697c48.841697 22.217697 96.814545 46.607515 143.36 73.355636 59.950545 32.581818 124.431515 57.344 180.596363 96.566303-62.557091 29.66497-138.581333 29.975273-200.393697-1.799757-65.536-31.464727-112.143515-96.628364-123.562666-168.122182z" fill="#24FEC5" p-id="908"></path><path d="M630.225455 704.760242c25.320727-0.682667 50.641455-0.248242 76.024242-0.372363-3.413333 15.266909-7.509333 30.347636-12.288 45.242182l-0.682667-0.682667c-16.011636-21.348848-44.187152-26.189576-63.053575-44.187152z" fill="#27FE4F" p-id="909"></path></svg>